<?xml version="1.0" standalone="no"?>
<!DOCTYPE svg PUBLIC "-//W3C//DTD SVG 20010904//EN"
 "http://www.w3.org/TR/2001/REC-SVG-20010904/DTD/svg10.dtd">
<svg version="1.0" xmlns="http://www.w3.org/2000/svg"
 width="1000.000000pt" height="1000.000000pt" viewBox="0 0 1000.000000 1000.000000"
 preserveAspectRatio="xMidYMid meet">
<metadata>
Created by potrace 1.11, written by Peter Selinger 2001-2013
</metadata>
<g transform="translate(0.000000,1000.000000) scale(0.100000,-0.100000)"
fill="#000000" stroke="none">
<path d="M4430 6817 c-29 -33 -80 -93 -137 -163 -17 -22 -40 -48 -50 -59 -30
-33 -197 -254 -213 -283 -8 -15 -20 -31 -26 -37 -7 -5 -27 -30 -46 -55 -18
-25 -42 -56 -53 -68 -11 -13 -28 -33 -37 -44 -10 -12 -18 -24 -18 -27 0 -3
-14 -22 -31 -41 -32 -35 -67 -85 -104 -146 -11 -19 -28 -42 -37 -53 -9 -11
-24 -31 -33 -45 -10 -14 -21 -26 -26 -26 -5 0 -28 19 -51 43 -51 49 -112 97
-126 97 -6 0 -12 5 -14 11 -3 9 -14 9 -43 -1 -30 -10 -110 -84 -360 -334 -177
-176 -338 -336 -359 -354 l-37 -33 -62 55 c-34 30 -98 89 -141 130 -43 42 -99
85 -123 97 l-44 21 -50 -33 c-27 -19 -49 -37 -49 -40 0 -3 -10 -17 -22 -31
-25 -27 -64 -73 -118 -138 -19 -23 -48 -57 -65 -75 -16 -18 -55 -61 -85 -95
-30 -35 -77 -86 -103 -114 -27 -28 -61 -64 -76 -81 -42 -45 -205 -199 -306
-290 -49 -44 -102 -92 -118 -107 -36 -34 -57 -36 -58 -5 0 12 -2 31 -4 42 -3
11 -6 92 -8 181 -2 88 -7 166 -11 172 -14 23 -36 13 -36 -15 0 -49 -2 -67 -15
-118 -8 -27 -16 -66 -18 -85 -10 -82 -40 -155 -75 -187 -20 -18 -42 -33 -49
-33 -7 0 -13 -4 -13 -10 0 -5 -11 -12 -25 -16 -28 -7 -33 -22 -10 -30 8 -3 17
-15 20 -25 6 -19 7 -19 39 1 39 24 47 25 40 6 -3 -7 -27 -23 -54 -36 -35 -16
-47 -27 -42 -38 3 -10 1 -13 -6 -8 -6 3 -13 2 -16 -2 -6 -10 47 -52 66 -52 7
0 -1 -14 -19 -30 -18 -17 -36 -30 -42 -30 -5 0 -11 -4 -13 -9 -2 -8 -29 -16
-70 -20 -5 -1 -8 -10 -8 -21 0 -19 20 -25 78 -23 16 1 15 -12 -3 -27 -11 -9
-12 -16 -5 -26 8 -9 4 -16 -16 -26 -34 -16 -46 -43 -15 -33 13 4 21 2 21 -5 0
-7 24 2 55 19 66 37 70 38 49 6 -19 -29 -73 -64 -108 -71 -43 -7 -77 -24 -72
-33 10 -15 -19 -20 -79 -14 l-57 6 31 13 c57 24 33 44 -46 39 -57 -3 -69 12
-56 70 6 25 7 45 4 45 -4 0 -8 12 -9 28 -1 15 -5 38 -9 52 -10 38 -11 193 -1
207 5 6 5 14 1 16 -22 14 -32 -14 -37 -103 -5 -98 -12 -136 -29 -157 -5 -7 -6
-13 -3 -13 8 0 2 -7 -50 -67 -22 -27 -51 -47 -75 -54 -21 -7 -40 -18 -43 -25
-6 -15 8 -18 59 -15 l30 2 -25 -20 c-14 -11 -41 -23 -60 -26 -19 -4 -46 -9
-59 -11 -38 -8 -64 -25 -54 -35 6 -6 28 -6 58 1 62 14 155 24 155 16 0 -10
-74 -43 -112 -50 -25 -5 -38 -12 -38 -23 0 -10 6 -14 19 -10 10 2 25 1 32 -3
8 -6 -1 -11 -27 -16 -21 -5 -42 -9 -46 -10 -5 -1 -13 -2 -19 -3 -8 -1 -8 -6 1
-16 12 -15 33 -15 130 0 8 1 19 0 24 -3 16 -9 -77 -44 -167 -62 -49 -10 -93
-22 -99 -28 -13 -13 19 -30 52 -27 100 10 210 13 210 7 0 -13 -136 -90 -180
-102 -24 -6 -54 -16 -68 -21 -45 -17 -9 -32 75 -31 76 2 77 1 50 -14 -16 -8
-36 -17 -45 -19 -9 -1 -51 -8 -92 -15 -88 -14 -95 -17 -80 -35 8 -10 30 -13
74 -10 34 2 68 0 76 -5 10 -6 5 -9 -16 -8 -41 1 -59 -10 -44 -27 8 -10 38 -12
121 -9 92 3 119 8 164 30 30 14 60 22 66 18 23 -14 81 -19 119 -10 14 4 38 9
54 12 16 2 33 7 37 9 3 3 13 -2 20 -11 8 -10 26 -14 54 -13 22 2 46 0 52 -4
19 -12 175 26 242 59 33 16 50 19 59 12 20 -17 153 -17 159 -1 3 8 13 11 22 9
62 -18 186 -27 220 -15 15 4 42 10 61 12 29 3 35 7 35 28 0 18 -6 24 -25 26
-43 2 -45 3 -28 14 35 20 17 29 -52 25 -39 -2 -73 1 -76 5 -3 5 4 9 16 9 11 0
23 7 26 15 4 8 12 15 20 15 8 0 14 6 14 14 0 10 -12 13 -43 11 -43 -3 -191 24
-182 34 3 3 52 6 108 7 100 1 214 18 230 33 5 5 1 15 -7 24 -11 10 -37 15 -88
16 -40 0 -87 5 -103 9 -17 5 -40 8 -53 7 -12 -1 -22 2 -22 7 0 4 4 8 10 8 5 0
14 9 20 21 11 20 10 21 -52 14 -35 -3 -72 -9 -83 -12 -17 -5 -18 -4 -6 10 7 9
17 15 21 12 5 -3 21 0 37 6 29 12 47 15 127 23 46 4 66 16 66 43 0 7 -6 10
-12 8 -33 -13 -117 -9 -163 6 -27 10 -41 18 -29 18 47 2 141 42 154 66 7 14
11 27 9 29 -2 3 -49 6 -104 8 -107 4 -175 26 -175 57 0 16 6 17 125 11 59 -3
64 0 25 14 l-35 13 35 8 c19 5 38 8 42 7 3 -1 12 5 18 13 14 17 11 18 -42 15
-40 -2 -52 14 -18 25 32 10 23 23 -19 30 -22 3 -47 13 -58 20 -17 14 -17 14 7
16 63 2 113 8 118 14 12 11 -19 29 -55 31 -21 1 -53 9 -72 17 -32 14 -32 14
-10 20 13 4 36 7 51 7 15 0 33 8 40 18 7 10 25 22 41 26 15 3 27 11 27 16 0
11 -10 13 -55 11 -16 -1 -38 4 -49 12 -17 13 -15 16 35 52 30 22 56 42 59 45
3 3 21 17 40 30 19 14 49 38 66 55 17 16 59 55 94 85 35 30 73 64 84 75 12 11
41 36 66 56 25 20 122 112 216 205 332 327 315 319 444 197 46 -43 86 -80 91
-81 19 -7 -115 -193 -216 -302 -28 -30 -71 -82 -95 -115 -25 -33 -47 -62 -50
-65 -25 -24 -60 -74 -60 -86 0 -18 33 3 93 60 20 20 39 36 41 36 3 0 17 12 33
28 16 15 45 41 64 57 19 17 69 61 112 99 72 64 78 67 71 40 -4 -16 -11 -37
-16 -47 -5 -9 -6 -22 -3 -28 7 -10 16 -1 63 60 69 88 481 503 560 561 18 14
47 38 65 54 156 139 221 185 264 192 33 5 48 3 54 -7 12 -19 12 -21 -14 -50
-12 -15 -35 -44 -52 -65 -46 -58 -78 -95 -101 -118 -11 -12 -45 -55 -74 -96
-30 -41 -78 -100 -108 -130 -29 -30 -61 -67 -70 -82 -9 -16 -20 -28 -24 -28
-4 0 -8 -6 -8 -14 0 -8 -8 -21 -17 -28 -18 -13 -103 -131 -103 -142 0 -30 138
77 284 219 37 36 70 64 72 62 2 -2 -7 -25 -21 -51 -29 -55 -31 -69 -8 -64 17
3 41 33 110 138 28 44 126 165 153 190 3 3 28 32 55 65 28 33 72 83 100 113
27 29 54 60 59 70 5 9 24 35 43 58 18 23 33 46 33 53 0 6 4 11 8 11 4 0 15 12
24 28 9 15 28 41 42 57 14 17 26 33 26 37 0 4 6 13 13 20 11 12 79 94 117 141
8 11 20 24 25 31 6 6 28 34 50 61 22 28 45 56 52 63 7 7 13 16 13 20 0 4 28
37 63 74 34 37 82 90 107 119 67 77 91 99 107 99 56 0 217 -148 413 -380 25
-29 71 -80 102 -112 32 -32 76 -82 97 -111 22 -28 54 -61 70 -72 17 -11 36
-30 42 -42 7 -13 18 -23 25 -23 7 0 16 -9 19 -20 3 -11 11 -20 16 -20 5 0 9
-5 9 -11 0 -5 26 -45 58 -87 l57 -77 3 32 c2 24 -11 62 -50 138 -59 118 -58
129 17 122 60 -6 106 -32 145 -84 19 -25 51 -64 72 -87 44 -50 110 -127 121
-141 4 -5 27 -32 52 -60 25 -27 47 -58 51 -67 3 -10 9 -18 13 -18 5 0 27 -24
49 -52 22 -29 53 -67 69 -83 15 -17 48 -55 73 -85 25 -29 57 -66 72 -82 26
-27 27 -29 10 -47 -9 -10 -35 -44 -57 -75 -22 -31 -44 -56 -50 -56 -5 0 -33
18 -62 40 -29 21 -65 46 -80 54 -34 17 -37 16 -148 -68 -85 -65 -84 -64 -160
-130 -27 -24 -62 -54 -78 -67 -15 -13 -55 -50 -90 -82 -34 -32 -97 -90 -140
-130 -126 -117 -420 -409 -449 -447 -15 -19 -28 -40 -28 -47 0 -34 29 -16 105
63 81 84 85 87 132 89 69 2 120 33 249 150 6 6 42 38 81 72 38 34 83 75 101
91 17 16 57 51 89 78 53 45 126 112 193 176 69 65 91 69 145 22 57 -48 70 -59
115 -94 25 -19 51 -40 58 -47 7 -7 17 -13 21 -13 3 0 37 -28 73 -63 37 -34 82
-75 102 -90 19 -16 55 -47 79 -70 44 -42 97 -81 257 -186 89 -59 210 -117 210
-100 0 18 -46 71 -176 204 -69 72 -145 152 -168 180 -65 79 -99 117 -131 150
-51 51 -149 135 -157 135 -17 0 -7 34 16 59 14 14 53 60 87 101 35 41 66 77
69 80 3 3 18 23 35 45 35 47 63 79 128 148 26 28 73 80 105 115 177 197 211
226 305 265 l37 16 49 -49 c41 -41 84 -96 209 -265 12 -16 40 -55 61 -86 22
-31 55 -71 73 -90 18 -19 45 -51 60 -70 24 -32 238 -249 238 -242 0 2 15 -11
33 -28 17 -17 31 -36 29 -41 -1 -5 2 -7 7 -4 5 4 12 2 16 -4 3 -5 13 -10 21
-10 8 0 13 4 10 9 -3 5 -8 26 -11 47 -2 22 -2 33 1 27 3 -7 10 -13 16 -13 8 0
93 -55 108 -70 3 -3 31 -25 63 -49 46 -35 60 -42 70 -32 9 10 7 16 -13 29 -51
35 -279 287 -268 297 3 4 109 -27 232 -67 47 -15 171 -129 259 -237 34 -42 69
-82 78 -88 10 -7 34 -37 55 -65 49 -67 49 -67 79 -104 l25 -32 -99 -100 c-54
-55 -128 -123 -165 -152 -36 -28 -66 -54 -66 -56 0 -3 12 -9 27 -15 20 -7 28
-7 34 3 5 7 16 14 26 15 33 3 63 12 87 25 71 38 147 86 198 125 31 24 61 43
67 43 6 0 11 3 11 8 0 4 43 36 95 71 l94 64 60 -6 c62 -5 120 -36 199 -107 44
-39 122 -89 171 -109 30 -13 91 -43 135 -67 157 -87 209 -108 261 -110 28 -1
55 3 61 7 7 6 35 -1 70 -18 32 -14 66 -28 75 -29 9 -2 53 -15 98 -29 47 -15
91 -23 103 -20 20 7 20 8 2 25 -11 10 -73 40 -139 66 -66 26 -139 60 -162 76
-23 15 -46 28 -51 28 -6 0 -12 4 -14 8 -1 5 -38 28 -81 51 -43 24 -96 60 -117
80 -22 21 -51 43 -64 51 -14 7 -34 21 -43 30 -10 8 -40 31 -68 50 -27 19 -51
37 -53 42 -2 4 -10 8 -17 8 -12 0 -85 45 -182 111 -23 16 -45 29 -50 29 -5 0
-44 20 -87 45 -107 61 -125 60 -193 -13 -29 -31 -77 -81 -106 -109 l-52 -53
-15 25 c-8 14 -18 25 -22 25 -5 0 -8 5 -8 11 0 6 -15 29 -34 52 -18 23 -71 96
-118 162 -124 177 -146 203 -228 279 -71 65 -130 101 -204 126 -45 15 -61 17
-152 25 -43 4 -87 11 -96 17 -10 5 -18 6 -18 3 0 -3 -22 6 -49 19 -50 26 -80
58 -176 186 -90 121 -98 131 -142 186 -24 29 -43 56 -43 59 0 4 -13 24 -29 44
-15 20 -39 56 -52 81 -43 81 -83 130 -125 150 -81 40 -85 38 -271 -147 -93
-93 -191 -194 -218 -225 -105 -119 -134 -154 -163 -193 -16 -22 -39 -50 -51
-62 -11 -12 -21 -25 -21 -29 0 -3 -11 -19 -24 -35 l-25 -29 -24 28 c-52 57
-237 277 -272 323 -80 103 -253 283 -350 364 -33 28 -68 58 -79 68 -11 9 -25
17 -30 18 -6 1 -24 2 -41 3 -133 11 -153 23 -328 194 -98 95 -227 261 -227
290 0 7 -4 12 -9 12 -6 0 -16 11 -23 24 -7 13 -40 55 -73 94 -104 120 -125
148 -155 205 -16 32 -33 44 -74 51 -22 4 -34 -2 -56 -27z m-3517 -2956 c15 -5
8 -12 -38 -35 -37 -18 -60 -24 -68 -18 -7 5 -32 8 -56 6 -41 -4 -128 12 -118
22 2 2 36 6 75 8 39 3 79 9 89 15 20 12 89 13 116 2z m-12 -65 c-7 -8 -34 -22
-62 -32 -27 -10 -49 -24 -49 -31 0 -7 -4 -13 -10 -13 -6 0 -9 6 -7 13 1 7 -9
12 -25 12 -21 -1 -24 2 -16 12 6 7 17 13 25 13 8 0 22 7 31 16 14 15 17 15 27
1 10 -14 15 -13 51 3 49 23 49 23 35 6z m-11 -94 c0 -10 -95 -55 -124 -59 -25
-4 -30 -9 -21 -22 3 -6 17 -11 31 -11 14 0 22 -4 19 -10 -3 -5 -27 -10 -52
-10 -36 0 -44 3 -39 15 4 10 -5 17 -27 24 -32 9 -32 9 -4 10 15 1 29 1 32 1
11 -1 65 31 65 38 0 4 8 8 18 9 52 5 83 11 89 17 9 8 13 8 13 -2z m-69 -132
c25 0 -3 -16 -32 -18 -28 -2 -30 -1 -19 13 7 9 20 13 27 10 8 -3 19 -5 24 -5z"/>
<path d="M5580 4900 c-8 -5 -10 -10 -5 -10 6 0 17 5 25 10 8 5 11 10 5 10 -5
0 -17 -5 -25 -10z"/>
<path d="M3330 4586 c0 -19 -5 -38 -10 -41 -6 -4 -8 -10 -6 -14 17 -27 15 -76
-5 -119 -12 -26 -23 -53 -25 -61 -3 -15 -48 -57 -67 -64 -6 -2 -7 -9 -3 -16 6
-9 24 -11 62 -7 33 3 54 2 54 -4 0 -6 -3 -10 -8 -10 -4 0 -18 -10 -32 -23 -14
-12 -42 -31 -62 -40 -21 -10 -38 -25 -38 -33 0 -15 9 -14 75 1 28 7 29 6 10
-7 -11 -8 -35 -20 -52 -27 -18 -8 -33 -17 -33 -22 0 -12 39 -31 49 -24 5 3 11
0 13 -6 3 -9 10 -9 27 0 12 7 25 10 28 7 10 -10 -59 -33 -116 -40 -30 -4 -57
-9 -60 -12 -12 -12 26 -22 61 -18 26 4 38 2 38 -6 0 -7 -7 -10 -15 -7 -8 4
-17 2 -20 -3 -3 -5 -18 -9 -33 -9 -39 0 -61 -6 -73 -18 -15 -15 5 -26 47 -28
39 -1 54 -12 30 -21 -19 -7 -22 -34 -3 -35 49 -2 115 -9 132 -13 11 -2 25 -5
30 -6 6 0 -5 -7 -23 -15 -18 -8 -76 -17 -130 -20 -100 -5 -141 -11 -150 -20
-13 -13 15 -20 78 -21 94 -2 165 -13 153 -25 -5 -5 -19 -11 -31 -14 -12 -2
-27 -7 -33 -10 -12 -8 -39 -12 -133 -20 -79 -6 -99 -14 -86 -35 6 -10 35 -14
112 -15 129 -2 134 -3 122 -14 -15 -14 -76 -30 -138 -36 -77 -8 -93 -16 -72
-38 9 -8 24 -13 35 -10 10 3 22 0 25 -6 4 -5 14 -8 24 -5 14 5 14 4 2 -4 -8
-5 -42 -12 -75 -15 -33 -3 -68 -9 -78 -12 -16 -7 -16 -9 -3 -24 10 -11 30 -16
65 -15 28 1 51 -2 51 -7 0 -5 -6 -9 -14 -9 -8 0 -24 -8 -37 -19 -20 -16 -21
-20 -9 -32 9 -9 36 -14 68 -13 29 0 55 -3 58 -8 3 -4 -1 -8 -8 -9 -7 0 -22 -2
-33 -5 -11 -2 -45 -6 -75 -7 -58 -3 -84 10 -74 36 4 11 -4 17 -28 23 -18 4
-39 7 -45 5 -22 -4 -14 16 8 22 28 7 18 22 -18 25 -15 1 -37 4 -48 6 -11 3
-26 5 -33 5 -7 1 -11 5 -8 10 3 5 37 12 76 16 45 4 77 13 90 25 l21 19 -38 10
c-21 6 -45 11 -53 11 -9 0 -3 8 13 18 39 24 29 36 -36 42 -30 3 -58 8 -62 12
-6 6 45 21 77 22 10 1 25 9 34 18 17 16 16 18 -7 27 -13 5 -22 10 -19 11 3 1
13 3 23 5 20 4 71 35 65 40 -1 2 -19 6 -38 9 -19 4 -48 9 -65 12 -43 8 -51 20
-18 29 41 10 56 25 42 41 -9 11 -8 14 5 14 20 0 21 30 1 31 -30 3 -34 4 -47
17 -6 6 -18 12 -25 12 -25 0 -13 18 17 24 19 3 30 12 30 22 0 11 -6 15 -19 11
-34 -9 -48 44 -45 171 3 87 0 112 -10 112 -16 0 -34 -58 -40 -130 -5 -62 -20
-109 -36 -111 -15 -2 -22 -4 -48 -13 -20 -6 -23 -13 -17 -34 4 -15 11 -30 17
-33 12 -8 -29 -25 -67 -28 -21 -2 -19 -31 3 -32 28 -1 76 -10 81 -15 2 -2 -37
-4 -87 -4 -51 0 -92 -4 -92 -8 0 -5 9 -17 20 -27 11 -10 20 -15 20 -10 0 4 6
3 13 -2 6 -5 39 -10 72 -12 33 -1 61 -4 63 -6 2 -2 -16 -7 -40 -12 -28 -6 -44
-14 -46 -26 -3 -12 3 -17 20 -17 13 0 33 -7 44 -15 17 -13 11 -14 -65 -12
-131 3 -115 -29 19 -39 19 -1 41 -3 49 -3 14 -1 7 -15 -7 -16 -38 -3 -84 -19
-94 -34 -7 -10 -23 -17 -35 -16 -29 2 -29 -8 0 -28 21 -15 20 -16 -33 -17 -68
0 -93 -13 -61 -29 12 -7 27 -11 34 -10 6 1 24 1 40 0 33 -1 37 -21 3 -21 -13
0 -29 -7 -36 -15 -14 -17 -7 -21 53 -28 49 -6 60 -17 18 -17 -18 0 -34 -6 -37
-14 -3 -8 -20 -14 -42 -14 -54 0 -94 -7 -121 -21 -41 -22 -8 -33 100 -33 114
0 103 -11 -22 -22 -107 -9 -173 -17 -178 -22 -3 -2 0 -9 6 -15 8 -8 88 -13
232 -15 122 -1 231 -6 242 -9 11 -4 54 -8 94 -10 57 -3 75 0 79 11 4 10 -3 14
-24 14 -17 0 -30 4 -30 9 0 5 12 7 28 6 62 -7 115 -16 123 -21 16 -9 9 -19
-13 -20 -37 -2 -132 -15 -147 -20 -11 -4 -11 -8 -3 -16 11 -11 59 -11 343 -3
47 1 91 5 98 9 6 4 35 9 64 11 28 2 64 8 78 13 15 6 29 9 30 7 2 -2 31 -6 64
-10 92 -9 195 20 156 45 -20 12 50 24 86 15 28 -7 27 -7 -15 -21 -42 -15 -82
-42 -82 -55 0 -13 174 -3 200 11 18 11 67 15 175 16 83 1 167 6 187 11 28 8
38 8 41 -2 6 -15 114 -19 182 -6 40 8 56 6 86 -8 41 -20 123 -20 171 0 16 6
31 9 35 5 7 -7 33 13 33 26 0 5 -6 8 -12 5 -20 -7 -48 12 -42 28 5 12 0 12
-28 5 -18 -6 -46 -10 -63 -10 -25 1 -27 2 -12 11 28 16 20 28 -25 36 l-43 7
50 16 c89 27 116 43 113 65 -2 16 -10 19 -33 17 -112 -9 -166 2 -105 22 35 12
53 36 26 36 -9 0 -16 5 -16 10 0 6 7 10 15 10 25 0 17 27 -10 34 -14 4 -25 11
-25 17 0 6 5 7 11 4 13 -8 69 14 69 27 0 6 -17 7 -40 4 -42 -6 -58 11 -20 21
36 10 15 33 -30 33 -23 0 -26 11 -29 95 -3 76 -18 120 -41 120 -16 0 -21 -31
-20 -130 0 -84 -13 -113 -59 -121 -58 -10 -71 -15 -71 -29 0 -15 77 -29 103
-19 13 5 16 2 11 -10 -3 -9 -27 -22 -53 -30 -28 -8 -47 -20 -49 -30 -2 -9 0
-15 5 -14 4 2 9 -1 11 -7 1 -5 -10 -11 -25 -13 -53 -5 -73 -12 -73 -27 0 -17
5 -18 78 -16 58 2 66 -4 25 -20 -27 -10 -27 -11 -9 -25 18 -13 17 -14 -17 -14
-26 0 -37 -4 -37 -15 0 -8 6 -15 14 -15 8 0 18 -5 22 -11 4 -7 -5 -10 -27 -8
-43 3 -79 -8 -79 -25 0 -15 -45 -26 -99 -25 l-36 1 33 14 c44 19 40 32 -13 40
-28 4 -44 11 -42 18 3 6 9 10 15 9 5 -1 17 6 26 16 14 15 15 21 4 27 -14 9
-17 10 -68 13 -32 3 -33 4 -10 11 14 4 37 5 51 3 29 -5 99 21 99 36 0 12 -9
14 -58 11 -18 -1 -51 2 -74 5 -33 6 -38 9 -24 17 9 5 25 11 35 13 26 5 60 27
65 42 6 14 -11 17 -79 14 -33 -1 -37 1 -22 10 11 6 24 12 31 13 6 1 27 13 46
26 l35 25 -40 6 c-22 4 -65 5 -95 3 l-55 -3 70 18 c39 10 77 20 85 22 16 4 30
19 30 33 0 4 -27 6 -59 3 -70 -5 -95 5 -60 24 l24 12 -32 14 c-40 16 -42 31
-5 39 15 3 38 10 52 16 l25 11 -32 9 c-41 11 -63 42 -63 88 0 20 -7 45 -15 56
-8 10 -15 17 -15 14 -7 -31 -10 -51 -14 -84 -5 -49 -9 -52 -80 -70 -32 -9 -62
-18 -65 -21 -9 -9 22 -25 49 -25 14 0 32 -4 40 -10 11 -7 8 -11 -15 -21 -17
-7 -36 -13 -44 -13 -17 -1 -28 -26 -12 -26 6 0 11 -7 11 -16 0 -8 4 -13 9 -9
5 3 12 1 16 -5 3 -5 1 -10 -6 -10 -8 0 -9 -3 0 -14 9 -11 4 -15 -26 -20 -21
-3 -53 -6 -70 -6 -22 0 -33 -5 -33 -14 0 -17 13 -22 75 -32 54 -8 45 -18 -23
-28 -46 -6 -82 -22 -82 -35 0 -15 29 -21 100 -21 38 0 72 -5 75 -10 4 -6 3
-10 -2 -9 -34 6 -83 -3 -83 -15 0 -8 6 -17 13 -20 6 -3 -6 -5 -28 -5 -80 2
-95 -1 -95 -16 0 -22 29 -33 102 -37 62 -4 109 -18 60 -18 -45 0 -71 -29 -39
-44 6 -3 -6 -3 -28 0 -22 4 -45 7 -51 7 -6 0 -11 7 -10 15 1 17 -32 28 -107
37 -28 3 -52 7 -54 9 -3 2 21 11 51 20 82 24 76 46 -12 45 -40 -1 -82 5 -102
14 l-35 15 30 3 c17 1 35 3 40 4 159 26 177 32 173 57 -3 20 -10 22 -66 24
-35 0 -68 6 -75 13 -8 8 -7 11 4 12 52 2 133 35 123 50 -3 5 -47 9 -97 9 -87
1 -91 2 -64 16 15 8 27 18 27 22 0 4 -21 13 -46 20 -51 14 -52 20 -8 27 30 5
88 19 159 39 22 6 39 16 38 21 -3 15 -44 22 -78 14 -51 -12 -125 -17 -125 -8
0 5 16 15 36 24 44 18 37 32 -22 41 -57 8 -51 14 22 20 33 3 76 7 97 9 21 1
41 6 44 9 15 15 -15 21 -103 22 -52 0 -98 4 -102 9 -4 4 3 14 16 22 29 20 28
37 -5 52 -35 16 -20 27 44 35 54 6 123 33 123 48 0 4 -12 8 -27 9 -16 1 -41 3
-58 5 -16 2 -36 5 -43 6 -25 3 4 17 41 20 48 3 52 32 5 42 -74 15 -118 78
-117 166 0 19 -2 46 -5 60 -3 14 -9 38 -12 55 -8 34 -32 75 -45 75 -5 0 -9
-15 -9 -34z m260 -1176 c62 -1 64 -1 40 -15 -26 -15 -70 -19 -107 -9 -26 7
-40 34 -15 29 9 -2 46 -4 82 -5z"/>
<path d="M7089 4530 c-1 -16 -4 -28 -9 -45 -2 -5 -4 -44 -5 -85 -3 -146 -52
-237 -154 -282 -27 -13 -40 -23 -34 -29 12 -12 42 -14 68 -4 16 5 15 2 -6 -17
-14 -12 -36 -29 -47 -37 -43 -30 13 -50 71 -26 37 16 26 -4 -18 -31 -61 -39
-59 -47 18 -47 31 0 18 -18 -29 -39 -26 -11 -74 -21 -106 -23 -107 -6 -106
-42 2 -47 l64 -3 -42 -20 c-23 -11 -42 -25 -42 -31 0 -14 30 -29 62 -33 27 -2
-19 -30 -72 -43 -35 -9 -56 -20 -58 -31 -3 -13 4 -15 40 -12 24 3 58 9 76 14
19 6 32 6 32 1 0 -11 -51 -39 -79 -43 -11 -2 -24 -6 -27 -10 -4 -4 -16 -7 -26
-7 -10 0 -18 -4 -18 -9 0 -10 31 -38 37 -33 3 2 8 1 11 -3 4 -3 -20 -4 -53 -2
-62 4 -159 -13 -178 -32 -20 -20 9 -34 71 -32 32 1 70 4 83 6 13 3 53 7 89 11
l65 5 -35 -30 c-19 -17 -46 -31 -60 -31 -14 -1 -36 -10 -49 -21 -21 -17 -22
-22 -10 -30 7 -5 22 -7 31 -5 10 2 20 1 23 -4 6 -10 -70 -39 -83 -31 -20 12
-102 0 -102 -15 0 -10 13 -14 43 -15 51 -1 94 1 122 7 11 3 31 7 45 10 14 3
33 7 43 10 9 3 17 1 17 -4 0 -7 -30 -20 -85 -34 -5 -1 -41 -7 -80 -13 -50 -8
-70 -15 -70 -25 0 -15 30 -17 122 -6 53 5 38 -23 -16 -31 -14 -2 -51 -3 -81
-2 -105 3 -171 1 -178 -5 -3 -4 7 -18 23 -31 30 -24 87 -38 158 -39 22 0 37
-5 37 -12 0 -9 21 -11 78 -8 42 2 103 4 136 4 51 0 57 2 46 15 -13 15 -12 16
28 19 9 1 22 4 27 7 6 4 24 7 40 8 17 0 39 2 50 4 11 3 38 -1 60 -8 43 -13 80
-13 133 -1 52 12 82 14 82 5 0 -8 28 -6 80 5 36 8 115 8 190 1 36 -4 70 -7 75
-6 6 0 43 3 83 6 40 3 89 1 107 -4 22 -6 37 -6 41 0 3 5 10 7 15 3 5 -3 16 -1
24 6 10 9 21 8 44 -4 16 -9 39 -16 51 -16 12 0 18 -4 15 -10 -3 -5 -17 -10
-30 -10 -25 0 -46 -19 -23 -21 40 -2 128 4 164 11 25 6 62 6 95 0 30 -6 85
-13 123 -15 37 -3 71 -6 75 -7 3 -1 20 5 36 14 17 8 44 19 62 22 35 8 66 35
42 37 -8 1 -18 0 -24 -1 -42 -9 -64 -9 -70 0 -3 6 -11 8 -16 5 -5 -4 -9 -1 -9
4 0 6 6 11 14 11 7 0 19 7 26 15 12 14 6 15 -49 9 -52 -5 -60 -3 -55 9 3 10
-1 17 -13 19 -14 3 -11 7 15 21 17 10 32 15 32 12 0 -2 14 3 31 13 44 24 33
37 -28 34 -32 -2 -54 2 -59 9 -5 8 -2 10 9 6 8 -3 18 0 21 8 2 7 -3 16 -12 20
-13 5 -7 11 25 24 23 9 48 22 55 29 14 14 9 15 -54 14 -33 -1 -36 1 -34 23 2
14 6 28 9 32 12 11 8 21 -10 26 -21 5 -9 11 40 21 26 6 30 29 4 24 -23 -4 -72
14 -95 35 -19 17 -44 76 -47 112 -1 6 -5 33 -10 60 -5 28 -8 53 -7 57 3 13
-34 27 -48 18 -15 -9 -15 -85 -1 -105 4 -5 8 -27 10 -47 2 -30 -2 -40 -24 -54
-14 -9 -41 -17 -60 -18 -56 -2 -45 -21 15 -26 47 -4 52 -7 35 -16 -11 -6 -42
-17 -68 -24 -52 -14 -57 -31 -11 -41 28 -6 20 -10 -27 -13 -12 0 -25 -8 -28
-16 -3 -9 -15 -15 -26 -15 -11 0 -21 -8 -23 -17 -3 -15 4 -18 40 -19 24 -1 47
-1 52 0 4 1 18 -1 30 -5 18 -6 16 -9 -19 -20 -36 -11 -38 -13 -17 -19 36 -12
26 -23 -32 -36 -39 -8 -56 -17 -59 -31 -3 -10 -9 -18 -14 -17 -21 4 -33 -2
-33 -17 0 -14 13 -15 90 -12 85 3 114 -3 70 -15 -11 -3 -20 -12 -20 -21 0 -10
-9 -16 -25 -17 -27 -2 -32 -3 -57 -12 -51 -19 -52 -19 -35 7 21 31 6 45 -46
42 -33 -1 -36 0 -21 11 10 7 21 13 26 13 4 0 8 12 8 26 0 14 -4 23 -9 20 -5
-3 -11 0 -14 8 -3 8 -16 16 -29 18 -21 3 -19 5 14 21 76 36 62 54 -47 61 -44
2 -82 5 -85 6 -3 0 15 11 40 23 50 25 66 57 28 58 l-23 0 23 16 c35 25 27 40
-28 47 -50 7 -66 24 -31 33 41 11 33 40 -13 47 -29 4 -28 15 6 31 76 39 82 71
10 54 -20 -4 -43 -4 -52 1 -24 13 -38 70 -35 147 2 64 -6 93 -26 93 -5 0 -8
-19 -7 -42 3 -87 -2 -117 -25 -144 -16 -18 -34 -27 -55 -28 -23 -1 -32 -6 -32
-18 0 -14 8 -18 35 -18 40 0 44 -9 14 -36 -20 -18 -31 -19 -146 -24 -7 0 -13
-7 -13 -15 0 -13 16 -19 41 -17 78 8 109 8 109 1 0 -12 -38 -32 -83 -44 -42
-11 -53 -28 -22 -33 36 -7 41 -22 8 -22 -31 0 -52 -15 -39 -27 6 -6 31 -10 76
-12 23 -2 24 -2 6 -13 -11 -6 -54 -11 -98 -11 -51 0 -78 -4 -78 -12 0 -13 46
-18 168 -17 50 0 92 -2 92 -6 0 -8 -47 -33 -96 -52 -17 -6 -42 -8 -56 -5 -27
7 -47 -9 -27 -21 6 -4 36 -8 66 -9 53 -2 85 -14 47 -16 -10 -1 -26 -3 -34 -4
-8 -1 -26 -3 -39 -4 -39 -2 -5 -31 38 -31 31 -1 33 -2 17 -12 -10 -6 -41 -12
-68 -13 -44 -2 -53 3 -49 28 2 11 -22 12 -119 1 -37 -4 -50 -2 -41 4 8 6 23 9
33 7 10 -2 18 0 18 4 0 4 23 14 50 21 35 9 50 19 50 30 0 14 -8 16 -45 13 -35
-4 -45 -2 -45 10 0 8 -9 14 -22 14 -96 1 -99 2 -86 23 7 11 18 20 24 20 6 0
17 7 24 15 10 12 8 16 -11 24 -22 8 -21 9 17 20 67 18 171 69 178 86 5 14 1
15 -27 9 -17 -4 -39 -8 -47 -9 -9 0 -20 -4 -25 -7 -6 -3 -32 -9 -60 -12 -27
-4 -65 -9 -84 -12 -50 -8 -35 16 20 32 65 18 118 39 131 52 11 11 -22 15 -124
12 -46 -1 -47 5 -8 25 17 9 30 19 30 24 0 9 -56 25 -77 22 -6 -1 -14 3 -18 9
-3 6 4 10 17 11 109 5 212 30 221 53 7 18 -22 29 -80 29 -24 1 -43 3 -43 6 0
3 -12 7 -28 8 -53 4 -93 11 -98 16 -5 4 52 18 70 16 11 -1 30 30 23 37 -2 2
-15 0 -28 -4 -33 -12 -129 23 -129 47 0 4 36 12 79 18 54 7 89 18 112 33 29
21 30 24 13 31 -10 3 -22 5 -26 2 -4 -2 -17 1 -28 7 -11 6 -37 12 -58 13 -35
2 -38 5 -53 52 -15 44 -21 77 -35 178 -7 51 -13 77 -20 88 -4 7 -8 28 -10 47
-3 37 -33 81 -35 52z"/>
</g>
</svg>
